<svg xmlns="http://www.w3.org/2000/svg" width="16745" height="824" viewBox="0 0 16745 824">
<style>
.edge{stroke:#5b6472;stroke-width:1.4}
.node{fill:#f8fbff;stroke:#2b6cb0;stroke-width:1.4}
.label{font-family:Menlo,Consolas,monospace;font-size:12px;fill:#111827;text-anchor:middle;dominant-baseline:middle}
.title{font-family:Arial,sans-serif;font-size:18px;font-weight:700;fill:#111827}
</style>
<text class="title" x="24" y="28">SNL Syntax Tree</text>
<line class="edge" x1="4981.5" y1="66.0" x2="80.0" y2="118.0"/>
<line class="edge" x1="4981.5" y1="66.0" x2="312.5" y2="118.0"/>
<line class="edge" x1="312.5" y1="154.0" x2="235.0" y2="206.0"/>
<line class="edge" x1="235.0" y1="242.0" x2="235.0" y2="294.0"/>
<line class="edge" x1="235.0" y1="330.0" x2="235.0" y2="382.0"/>
<line class="edge" x1="312.5" y1="154.0" x2="390.0" y2="206.0"/>
<line class="edge" x1="390.0" y1="242.0" x2="390.0" y2="294.0"/>
<line class="edge" x1="390.0" y1="330.0" x2="390.0" y2="382.0"/>
<line class="edge" x1="390.0" y1="418.0" x2="390.0" y2="470.0"/>
<line class="edge" x1="4981.5" y1="66.0" x2="700.0" y2="118.0"/>
<line class="edge" x1="700.0" y1="154.0" x2="545.0" y2="206.0"/>
<line class="edge" x1="545.0" y1="242.0" x2="545.0" y2="294.0"/>
<line class="edge" x1="700.0" y1="154.0" x2="700.0" y2="206.0"/>
<line class="edge" x1="700.0" y1="242.0" x2="700.0" y2="294.0"/>
<line class="edge" x1="700.0" y1="154.0" x2="855.0" y2="206.0"/>
<line class="edge" x1="855.0" y1="242.0" x2="855.0" y2="294.0"/>
<line class="edge" x1="4981.5" y1="66.0" x2="1465.3" y2="118.0"/>
<line class="edge" x1="1465.3" y1="154.0" x2="1165.0" y2="206.0"/>
<line class="edge" x1="1165.0" y1="242.0" x2="1010.0" y2="294.0"/>
<line class="edge" x1="1010.0" y1="330.0" x2="1010.0" y2="382.0"/>
<line class="edge" x1="1165.0" y1="242.0" x2="1165.0" y2="294.0"/>
<line class="edge" x1="1165.0" y1="330.0" x2="1165.0" y2="382.0"/>
<line class="edge" x1="1165.0" y1="242.0" x2="1320.0" y2="294.0"/>
<line class="edge" x1="1320.0" y1="330.0" x2="1320.0" y2="382.0"/>
<line class="edge" x1="1465.3" y1="154.0" x2="1765.6" y2="206.0"/>
<line class="edge" x1="1765.6" y1="242.0" x2="1591.2" y2="294.0"/>
<line class="edge" x1="1591.2" y1="330.0" x2="1475.0" y2="382.0"/>
<line class="edge" x1="1591.2" y1="330.0" x2="1707.5" y2="382.0"/>
<line class="edge" x1="1707.5" y1="418.0" x2="1630.0" y2="470.0"/>
<line class="edge" x1="1707.5" y1="418.0" x2="1785.0" y2="470.0"/>
<line class="edge" x1="1765.6" y1="242.0" x2="1940.0" y2="294.0"/>
<line class="edge" x1="1940.0" y1="330.0" x2="1940.0" y2="382.0"/>
<line class="edge" x1="4981.5" y1="66.0" x2="2550.3" y2="118.0"/>
<line class="edge" x1="2550.3" y1="154.0" x2="2250.0" y2="206.0"/>
<line class="edge" x1="2250.0" y1="242.0" x2="2095.0" y2="294.0"/>
<line class="edge" x1="2095.0" y1="330.0" x2="2095.0" y2="382.0"/>
<line class="edge" x1="2250.0" y1="242.0" x2="2250.0" y2="294.0"/>
<line class="edge" x1="2250.0" y1="330.0" x2="2250.0" y2="382.0"/>
<line class="edge" x1="2250.0" y1="242.0" x2="2405.0" y2="294.0"/>
<line class="edge" x1="2405.0" y1="330.0" x2="2405.0" y2="382.0"/>
<line class="edge" x1="2550.3" y1="154.0" x2="2850.6" y2="206.0"/>
<line class="edge" x1="2850.6" y1="242.0" x2="2676.2" y2="294.0"/>
<line class="edge" x1="2676.2" y1="330.0" x2="2560.0" y2="382.0"/>
<line class="edge" x1="2676.2" y1="330.0" x2="2792.5" y2="382.0"/>
<line class="edge" x1="2792.5" y1="418.0" x2="2715.0" y2="470.0"/>
<line class="edge" x1="2792.5" y1="418.0" x2="2870.0" y2="470.0"/>
<line class="edge" x1="2850.6" y1="242.0" x2="3025.0" y2="294.0"/>
<line class="edge" x1="3025.0" y1="330.0" x2="3025.0" y2="382.0"/>
<line class="edge" x1="4981.5" y1="66.0" x2="3835.5" y2="118.0"/>
<line class="edge" x1="3835.5" y1="154.0" x2="3257.5" y2="206.0"/>
<line class="edge" x1="3257.5" y1="242.0" x2="3180.0" y2="294.0"/>
<line class="edge" x1="3180.0" y1="330.0" x2="3180.0" y2="382.0"/>
<line class="edge" x1="3257.5" y1="242.0" x2="3335.0" y2="294.0"/>
<line class="edge" x1="3335.0" y1="330.0" x2="3335.0" y2="382.0"/>
<line class="edge" x1="3835.5" y1="154.0" x2="3490.0" y2="206.0"/>
<line class="edge" x1="3490.0" y1="242.0" x2="3490.0" y2="294.0"/>
<line class="edge" x1="3490.0" y1="330.0" x2="3490.0" y2="382.0"/>
<line class="edge" x1="3835.5" y1="154.0" x2="4759.1" y2="206.0"/>
<line class="edge" x1="4759.1" y1="242.0" x2="4168.1" y2="294.0"/>
<line class="edge" x1="4168.1" y1="330.0" x2="3722.5" y2="382.0"/>
<line class="edge" x1="3722.5" y1="418.0" x2="3645.0" y2="470.0"/>
<line class="edge" x1="3722.5" y1="418.0" x2="3800.0" y2="470.0"/>
<line class="edge" x1="4168.1" y1="330.0" x2="4032.5" y2="382.0"/>
<line class="edge" x1="4032.5" y1="418.0" x2="4032.5" y2="470.0"/>
<line class="edge" x1="4032.5" y1="506.0" x2="3955.0" y2="558.0"/>
<line class="edge" x1="4032.5" y1="506.0" x2="4110.0" y2="558.0"/>
<line class="edge" x1="4168.1" y1="330.0" x2="4749.4" y2="382.0"/>
<line class="edge" x1="4749.4" y1="418.0" x2="4497.5" y2="470.0"/>
<line class="edge" x1="4497.5" y1="506.0" x2="4265.0" y2="558.0"/>
<line class="edge" x1="4497.5" y1="506.0" x2="4497.5" y2="558.0"/>
<line class="edge" x1="4497.5" y1="594.0" x2="4420.0" y2="646.0"/>
<line class="edge" x1="4497.5" y1="594.0" x2="4575.0" y2="646.0"/>
<line class="edge" x1="4497.5" y1="506.0" x2="4730.0" y2="558.0"/>
<line class="edge" x1="4749.4" y1="418.0" x2="5001.2" y2="470.0"/>
<line class="edge" x1="5001.2" y1="506.0" x2="4885.0" y2="558.0"/>
<line class="edge" x1="5001.2" y1="506.0" x2="5117.5" y2="558.0"/>
<line class="edge" x1="5117.5" y1="594.0" x2="5040.0" y2="646.0"/>
<line class="edge" x1="5117.5" y1="594.0" x2="5195.0" y2="646.0"/>
<line class="edge" x1="4759.1" y1="242.0" x2="5350.0" y2="294.0"/>
<line class="edge" x1="5350.0" y1="330.0" x2="5350.0" y2="382.0"/>
<line class="edge" x1="4981.5" y1="66.0" x2="6310.1" y2="118.0"/>
<line class="edge" x1="6310.1" y1="154.0" x2="5582.5" y2="206.0"/>
<line class="edge" x1="5582.5" y1="242.0" x2="5505.0" y2="294.0"/>
<line class="edge" x1="5505.0" y1="330.0" x2="5505.0" y2="382.0"/>
<line class="edge" x1="5582.5" y1="242.0" x2="5660.0" y2="294.0"/>
<line class="edge" x1="5660.0" y1="330.0" x2="5660.0" y2="382.0"/>
<line class="edge" x1="6310.1" y1="154.0" x2="5815.0" y2="206.0"/>
<line class="edge" x1="5815.0" y1="242.0" x2="5815.0" y2="294.0"/>
<line class="edge" x1="5815.0" y1="330.0" x2="5815.0" y2="382.0"/>
<line class="edge" x1="6310.1" y1="154.0" x2="7532.9" y2="206.0"/>
<line class="edge" x1="7532.9" y1="242.0" x2="6615.8" y2="294.0"/>
<line class="edge" x1="6615.8" y1="330.0" x2="6047.5" y2="382.0"/>
<line class="edge" x1="6047.5" y1="418.0" x2="5970.0" y2="470.0"/>
<line class="edge" x1="6047.5" y1="418.0" x2="6125.0" y2="470.0"/>
<line class="edge" x1="6615.8" y1="330.0" x2="6357.5" y2="382.0"/>
<line class="edge" x1="6357.5" y1="418.0" x2="6357.5" y2="470.0"/>
<line class="edge" x1="6357.5" y1="506.0" x2="6280.0" y2="558.0"/>
<line class="edge" x1="6357.5" y1="506.0" x2="6435.0" y2="558.0"/>
<line class="edge" x1="6615.8" y1="330.0" x2="7442.5" y2="382.0"/>
<line class="edge" x1="7442.5" y1="418.0" x2="6822.5" y2="470.0"/>
<line class="edge" x1="6822.5" y1="506.0" x2="6590.0" y2="558.0"/>
<line class="edge" x1="6822.5" y1="506.0" x2="6822.5" y2="558.0"/>
<line class="edge" x1="6822.5" y1="594.0" x2="6745.0" y2="646.0"/>
<line class="edge" x1="6822.5" y1="594.0" x2="6900.0" y2="646.0"/>
<line class="edge" x1="6822.5" y1="506.0" x2="7055.0" y2="558.0"/>
<line class="edge" x1="7442.5" y1="418.0" x2="7442.5" y2="470.0"/>
<line class="edge" x1="7442.5" y1="506.0" x2="7210.0" y2="558.0"/>
<line class="edge" x1="7442.5" y1="506.0" x2="7442.5" y2="558.0"/>
<line class="edge" x1="7442.5" y1="594.0" x2="7365.0" y2="646.0"/>
<line class="edge" x1="7442.5" y1="594.0" x2="7520.0" y2="646.0"/>
<line class="edge" x1="7442.5" y1="506.0" x2="7675.0" y2="558.0"/>
<line class="edge" x1="7442.5" y1="418.0" x2="8062.5" y2="470.0"/>
<line class="edge" x1="8062.5" y1="506.0" x2="7830.0" y2="558.0"/>
<line class="edge" x1="8062.5" y1="506.0" x2="7985.0" y2="558.0"/>
<line class="edge" x1="8062.5" y1="506.0" x2="8140.0" y2="558.0"/>
<line class="edge" x1="8062.5" y1="506.0" x2="8295.0" y2="558.0"/>
<line class="edge" x1="7532.9" y1="242.0" x2="8450.0" y2="294.0"/>
<line class="edge" x1="8450.0" y1="330.0" x2="8450.0" y2="382.0"/>
<line class="edge" x1="4981.5" y1="66.0" x2="9488.5" y2="118.0"/>
<line class="edge" x1="9488.5" y1="154.0" x2="8915.0" y2="206.0"/>
<line class="edge" x1="8915.0" y1="242.0" x2="8605.0" y2="294.0"/>
<line class="edge" x1="8605.0" y1="330.0" x2="8605.0" y2="382.0"/>
<line class="edge" x1="8915.0" y1="242.0" x2="8760.0" y2="294.0"/>
<line class="edge" x1="8760.0" y1="330.0" x2="8760.0" y2="382.0"/>
<line class="edge" x1="8915.0" y1="242.0" x2="8915.0" y2="294.0"/>
<line class="edge" x1="8915.0" y1="330.0" x2="8915.0" y2="382.0"/>
<line class="edge" x1="8915.0" y1="242.0" x2="9070.0" y2="294.0"/>
<line class="edge" x1="9070.0" y1="330.0" x2="9070.0" y2="382.0"/>
<line class="edge" x1="8915.0" y1="242.0" x2="9225.0" y2="294.0"/>
<line class="edge" x1="9225.0" y1="330.0" x2="9225.0" y2="382.0"/>
<line class="edge" x1="9488.5" y1="154.0" x2="10062.0" y2="206.0"/>
<line class="edge" x1="10062.0" y1="242.0" x2="9457.5" y2="294.0"/>
<line class="edge" x1="9457.5" y1="330.0" x2="9380.0" y2="382.0"/>
<line class="edge" x1="9380.0" y1="418.0" x2="9380.0" y2="470.0"/>
<line class="edge" x1="9457.5" y1="330.0" x2="9535.0" y2="382.0"/>
<line class="edge" x1="10062.0" y1="242.0" x2="9767.5" y2="294.0"/>
<line class="edge" x1="9767.5" y1="330.0" x2="9690.0" y2="382.0"/>
<line class="edge" x1="9690.0" y1="418.0" x2="9690.0" y2="470.0"/>
<line class="edge" x1="9767.5" y1="330.0" x2="9845.0" y2="382.0"/>
<line class="edge" x1="10062.0" y1="242.0" x2="10077.5" y2="294.0"/>
<line class="edge" x1="10077.5" y1="330.0" x2="10000.0" y2="382.0"/>
<line class="edge" x1="10000.0" y1="418.0" x2="10000.0" y2="470.0"/>
<line class="edge" x1="10077.5" y1="330.0" x2="10155.0" y2="382.0"/>
<line class="edge" x1="10062.0" y1="242.0" x2="10387.5" y2="294.0"/>
<line class="edge" x1="10387.5" y1="330.0" x2="10310.0" y2="382.0"/>
<line class="edge" x1="10310.0" y1="418.0" x2="10310.0" y2="470.0"/>
<line class="edge" x1="10387.5" y1="330.0" x2="10465.0" y2="382.0"/>
<line class="edge" x1="10062.0" y1="242.0" x2="10620.0" y2="294.0"/>
<line class="edge" x1="10620.0" y1="330.0" x2="10620.0" y2="382.0"/>
<line class="edge" x1="4981.5" y1="66.0" x2="11007.5" y2="118.0"/>
<line class="edge" x1="11007.5" y1="154.0" x2="10775.0" y2="206.0"/>
<line class="edge" x1="10775.0" y1="242.0" x2="10775.0" y2="294.0"/>
<line class="edge" x1="10775.0" y1="330.0" x2="10775.0" y2="382.0"/>
<line class="edge" x1="11007.5" y1="154.0" x2="11240.0" y2="206.0"/>
<line class="edge" x1="11240.0" y1="242.0" x2="10930.0" y2="294.0"/>
<line class="edge" x1="10930.0" y1="330.0" x2="10930.0" y2="382.0"/>
<line class="edge" x1="10930.0" y1="418.0" x2="10930.0" y2="470.0"/>
<line class="edge" x1="11240.0" y1="242.0" x2="11085.0" y2="294.0"/>
<line class="edge" x1="11085.0" y1="330.0" x2="11085.0" y2="382.0"/>
<line class="edge" x1="11085.0" y1="418.0" x2="11085.0" y2="470.0"/>
<line class="edge" x1="11240.0" y1="242.0" x2="11240.0" y2="294.0"/>
<line class="edge" x1="11240.0" y1="330.0" x2="11240.0" y2="382.0"/>
<line class="edge" x1="11240.0" y1="418.0" x2="11240.0" y2="470.0"/>
<line class="edge" x1="11240.0" y1="242.0" x2="11395.0" y2="294.0"/>
<line class="edge" x1="11395.0" y1="330.0" x2="11395.0" y2="382.0"/>
<line class="edge" x1="11395.0" y1="418.0" x2="11395.0" y2="470.0"/>
<line class="edge" x1="11240.0" y1="242.0" x2="11550.0" y2="294.0"/>
<line class="edge" x1="11550.0" y1="330.0" x2="11550.0" y2="382.0"/>
<line class="edge" x1="11550.0" y1="418.0" x2="11550.0" y2="470.0"/>
<line class="edge" x1="4981.5" y1="66.0" x2="14065.2" y2="118.0"/>
<line class="edge" x1="14065.2" y1="154.0" x2="11782.5" y2="206.0"/>
<line class="edge" x1="11782.5" y1="242.0" x2="11705.0" y2="294.0"/>
<line class="edge" x1="11782.5" y1="242.0" x2="11860.0" y2="294.0"/>
<line class="edge" x1="14065.2" y1="154.0" x2="12170.0" y2="206.0"/>
<line class="edge" x1="12170.0" y1="242.0" x2="12015.0" y2="294.0"/>
<line class="edge" x1="12170.0" y1="242.0" x2="12170.0" y2="294.0"/>
<line class="edge" x1="12170.0" y1="242.0" x2="12325.0" y2="294.0"/>
<line class="edge" x1="14065.2" y1="154.0" x2="12635.0" y2="206.0"/>
<line class="edge" x1="12635.0" y1="242.0" x2="12480.0" y2="294.0"/>
<line class="edge" x1="12635.0" y1="242.0" x2="12635.0" y2="294.0"/>
<line class="edge" x1="12635.0" y1="242.0" x2="12790.0" y2="294.0"/>
<line class="edge" x1="14065.2" y1="154.0" x2="13177.5" y2="206.0"/>
<line class="edge" x1="13177.5" y1="242.0" x2="12945.0" y2="294.0"/>
<line class="edge" x1="13177.5" y1="242.0" x2="13100.0" y2="294.0"/>
<line class="edge" x1="13177.5" y1="242.0" x2="13255.0" y2="294.0"/>
<line class="edge" x1="13177.5" y1="242.0" x2="13410.0" y2="294.0"/>
<line class="edge" x1="14065.2" y1="154.0" x2="13797.5" y2="206.0"/>
<line class="edge" x1="13797.5" y1="242.0" x2="13565.0" y2="294.0"/>
<line class="edge" x1="13797.5" y1="242.0" x2="13720.0" y2="294.0"/>
<line class="edge" x1="13797.5" y1="242.0" x2="13875.0" y2="294.0"/>
<line class="edge" x1="13797.5" y1="242.0" x2="14030.0" y2="294.0"/>
<line class="edge" x1="14065.2" y1="154.0" x2="14262.5" y2="206.0"/>
<line class="edge" x1="14262.5" y1="242.0" x2="14185.0" y2="294.0"/>
<line class="edge" x1="14185.0" y1="330.0" x2="14185.0" y2="382.0"/>
<line class="edge" x1="14185.0" y1="418.0" x2="14185.0" y2="470.0"/>
<line class="edge" x1="14262.5" y1="242.0" x2="14340.0" y2="294.0"/>
<line class="edge" x1="14065.2" y1="154.0" x2="14572.5" y2="206.0"/>
<line class="edge" x1="14572.5" y1="242.0" x2="14495.0" y2="294.0"/>
<line class="edge" x1="14495.0" y1="330.0" x2="14495.0" y2="382.0"/>
<line class="edge" x1="14495.0" y1="418.0" x2="14495.0" y2="470.0"/>
<line class="edge" x1="14572.5" y1="242.0" x2="14650.0" y2="294.0"/>
<line class="edge" x1="14065.2" y1="154.0" x2="14882.5" y2="206.0"/>
<line class="edge" x1="14882.5" y1="242.0" x2="14805.0" y2="294.0"/>
<line class="edge" x1="14805.0" y1="330.0" x2="14805.0" y2="382.0"/>
<line class="edge" x1="14805.0" y1="418.0" x2="14805.0" y2="470.0"/>
<line class="edge" x1="14882.5" y1="242.0" x2="14960.0" y2="294.0"/>
<line class="edge" x1="14065.2" y1="154.0" x2="15192.5" y2="206.0"/>
<line class="edge" x1="15192.5" y1="242.0" x2="15115.0" y2="294.0"/>
<line class="edge" x1="15115.0" y1="330.0" x2="15115.0" y2="382.0"/>
<line class="edge" x1="15115.0" y1="418.0" x2="15115.0" y2="470.0"/>
<line class="edge" x1="15192.5" y1="242.0" x2="15270.0" y2="294.0"/>
<line class="edge" x1="14065.2" y1="154.0" x2="15812.5" y2="206.0"/>
<line class="edge" x1="15812.5" y1="242.0" x2="15425.0" y2="294.0"/>
<line class="edge" x1="15812.5" y1="242.0" x2="15580.0" y2="294.0"/>
<line class="edge" x1="15580.0" y1="330.0" x2="15580.0" y2="382.0"/>
<line class="edge" x1="15580.0" y1="418.0" x2="15580.0" y2="470.0"/>
<line class="edge" x1="15812.5" y1="242.0" x2="15735.0" y2="294.0"/>
<line class="edge" x1="15735.0" y1="330.0" x2="15735.0" y2="382.0"/>
<line class="edge" x1="15735.0" y1="418.0" x2="15735.0" y2="470.0"/>
<line class="edge" x1="15812.5" y1="242.0" x2="15890.0" y2="294.0"/>
<line class="edge" x1="15890.0" y1="330.0" x2="15890.0" y2="382.0"/>
<line class="edge" x1="15890.0" y1="418.0" x2="15890.0" y2="470.0"/>
<line class="edge" x1="15812.5" y1="242.0" x2="16045.0" y2="294.0"/>
<line class="edge" x1="16045.0" y1="330.0" x2="16045.0" y2="382.0"/>
<line class="edge" x1="16045.0" y1="418.0" x2="16045.0" y2="470.0"/>
<line class="edge" x1="15812.5" y1="242.0" x2="16200.0" y2="294.0"/>
<line class="edge" x1="14065.2" y1="154.0" x2="16432.5" y2="206.0"/>
<line class="edge" x1="16432.5" y1="242.0" x2="16355.0" y2="294.0"/>
<line class="edge" x1="16432.5" y1="242.0" x2="16510.0" y2="294.0"/>
<rect class="node" x="4952.5" y="30.0" width="58.0" height="36" rx="6"/>
<text class="label" x="4981.5" y="48.0">ProK</text>
<rect class="node" x="-8.0" y="118.0" width="176.0" height="36" rx="6"/>
<text class="label" x="80.0" y="136.0">PheadK complexCalls</text>
<rect class="node" x="280.5" y="118.0" width="64.0" height="36" rx="6"/>
<text class="label" x="312.5" y="136.0">TypeK</text>
<rect class="node" x="171.0" y="206.0" width="128.0" height="36" rx="6"/>
<text class="label" x="235.0" y="224.0">DecK IntArray</text>
<rect class="node" x="179.0" y="294.0" width="112.0" height="36" rx="6"/>
<text class="label" x="235.0" y="312.0">ArrayK 1..4</text>
<rect class="node" x="191.0" y="382.0" width="88.0" height="36" rx="6"/>
<text class="label" x="235.0" y="400.0">IntegerK</text>
<rect class="node" x="334.0" y="206.0" width="112.0" height="36" rx="6"/>
<text class="label" x="390.0" y="224.0">DecK Report</text>
<rect class="node" x="350.0" y="294.0" width="80.0" height="36" rx="6"/>
<text class="label" x="390.0" y="312.0">RecordK</text>
<rect class="node" x="285.0" y="382.0" width="210.0" height="36" rx="6"/>
<text class="label" x="390.0" y="400.0">DecK fibValue, factValue, totalValue, scaledValue</text>
<rect class="node" x="346.0" y="470.0" width="88.0" height="36" rx="6"/>
<text class="label" x="390.0" y="488.0">IntegerK</text>
<rect class="node" x="671.0" y="118.0" width="58.0" height="36" rx="6"/>
<text class="label" x="700.0" y="136.0">VarK</text>
<rect class="node" x="440.0" y="206.0" width="210.0" height="36" rx="6"/>
<text class="label" x="545.0" y="224.0">DecK n, fibResult, factResult, total, scaled</text>
<rect class="node" x="501.0" y="294.0" width="88.0" height="36" rx="6"/>
<text class="label" x="545.0" y="312.0">IntegerK</text>
<rect class="node" x="644.0" y="206.0" width="112.0" height="36" rx="6"/>
<text class="label" x="700.0" y="224.0">DecK values</text>
<rect class="node" x="624.0" y="294.0" width="152.0" height="36" rx="6"/>
<text class="label" x="700.0" y="312.0">IdTypeK IntArray</text>
<rect class="node" x="799.0" y="206.0" width="112.0" height="36" rx="6"/>
<text class="label" x="855.0" y="224.0">DecK report</text>
<rect class="node" x="787.0" y="294.0" width="136.0" height="36" rx="6"/>
<text class="label" x="855.0" y="312.0">IdTypeK Report</text>
<rect class="node" x="1405.3" y="118.0" width="120.0" height="36" rx="6"/>
<text class="label" x="1465.3" y="136.0">ProcDecK add</text>
<rect class="node" x="1113.0" y="206.0" width="104.0" height="36" rx="6"/>
<text class="label" x="1165.0" y="224.0">ParamListK</text>
<rect class="node" x="938.0" y="294.0" width="144.0" height="36" rx="6"/>
<text class="label" x="1010.0" y="312.0">ParamK value: a</text>
<rect class="node" x="966.0" y="382.0" width="88.0" height="36" rx="6"/>
<text class="label" x="1010.0" y="400.0">IntegerK</text>
<rect class="node" x="1093.0" y="294.0" width="144.0" height="36" rx="6"/>
<text class="label" x="1165.0" y="312.0">ParamK value: b</text>
<rect class="node" x="1121.0" y="382.0" width="88.0" height="36" rx="6"/>
<text class="label" x="1165.0" y="400.0">IntegerK</text>
<rect class="node" x="1248.0" y="294.0" width="144.0" height="36" rx="6"/>
<text class="label" x="1320.0" y="312.0">ParamK var: out</text>
<rect class="node" x="1276.0" y="382.0" width="88.0" height="36" rx="6"/>
<text class="label" x="1320.0" y="400.0">IntegerK</text>
<rect class="node" x="1733.6" y="206.0" width="64.0" height="36" rx="6"/>
<text class="label" x="1765.6" y="224.0">StmLK</text>
<rect class="node" x="1531.2" y="294.0" width="120.0" height="36" rx="6"/>
<text class="label" x="1591.2" y="312.0">StmtK Assign</text>
<rect class="node" x="1415.0" y="382.0" width="120.0" height="36" rx="6"/>
<text class="label" x="1475.0" y="400.0">ExpK out IdV</text>
<rect class="node" x="1659.5" y="382.0" width="96.0" height="36" rx="6"/>
<text class="label" x="1707.5" y="400.0">ExpK Op +</text>
<rect class="node" x="1578.0" y="470.0" width="104.0" height="36" rx="6"/>
<text class="label" x="1630.0" y="488.0">ExpK a IdV</text>
<rect class="node" x="1733.0" y="470.0" width="104.0" height="36" rx="6"/>
<text class="label" x="1785.0" y="488.0">ExpK b IdV</text>
<rect class="node" x="1880.0" y="294.0" width="120.0" height="36" rx="6"/>
<text class="label" x="1940.0" y="312.0">StmtK Return</text>
<rect class="node" x="1880.0" y="382.0" width="120.0" height="36" rx="6"/>
<text class="label" x="1940.0" y="400.0">ExpK out IdV</text>
<rect class="node" x="2482.3" y="118.0" width="136.0" height="36" rx="6"/>
<text class="label" x="2550.3" y="136.0">ProcDecK scale</text>
<rect class="node" x="2198.0" y="206.0" width="104.0" height="36" rx="6"/>
<text class="label" x="2250.0" y="224.0">ParamListK</text>
<rect class="node" x="2007.0" y="294.0" width="176.0" height="36" rx="6"/>
<text class="label" x="2095.0" y="312.0">ParamK value: value</text>
<rect class="node" x="2051.0" y="382.0" width="88.0" height="36" rx="6"/>
<text class="label" x="2095.0" y="400.0">IntegerK</text>
<rect class="node" x="2158.0" y="294.0" width="184.0" height="36" rx="6"/>
<text class="label" x="2250.0" y="312.0">ParamK value: factor</text>
<rect class="node" x="2206.0" y="382.0" width="88.0" height="36" rx="6"/>
<text class="label" x="2250.0" y="400.0">IntegerK</text>
<rect class="node" x="2333.0" y="294.0" width="144.0" height="36" rx="6"/>
<text class="label" x="2405.0" y="312.0">ParamK var: out</text>
<rect class="node" x="2361.0" y="382.0" width="88.0" height="36" rx="6"/>
<text class="label" x="2405.0" y="400.0">IntegerK</text>
<rect class="node" x="2818.6" y="206.0" width="64.0" height="36" rx="6"/>
<text class="label" x="2850.6" y="224.0">StmLK</text>
<rect class="node" x="2616.2" y="294.0" width="120.0" height="36" rx="6"/>
<text class="label" x="2676.2" y="312.0">StmtK Assign</text>
<rect class="node" x="2500.0" y="382.0" width="120.0" height="36" rx="6"/>
<text class="label" x="2560.0" y="400.0">ExpK out IdV</text>
<rect class="node" x="2744.5" y="382.0" width="96.0" height="36" rx="6"/>
<text class="label" x="2792.5" y="400.0">ExpK Op *</text>
<rect class="node" x="2647.0" y="470.0" width="136.0" height="36" rx="6"/>
<text class="label" x="2715.0" y="488.0">ExpK value IdV</text>
<rect class="node" x="2798.0" y="470.0" width="144.0" height="36" rx="6"/>
<text class="label" x="2870.0" y="488.0">ExpK factor IdV</text>
<rect class="node" x="2965.0" y="294.0" width="120.0" height="36" rx="6"/>
<text class="label" x="3025.0" y="312.0">StmtK Return</text>
<rect class="node" x="2965.0" y="382.0" width="120.0" height="36" rx="6"/>
<text class="label" x="3025.0" y="400.0">ExpK out IdV</text>
<rect class="node" x="3751.5" y="118.0" width="168.0" height="36" rx="6"/>
<text class="label" x="3835.5" y="136.0">ProcDecK factorial</text>
<rect class="node" x="3205.5" y="206.0" width="104.0" height="36" rx="6"/>
<text class="label" x="3257.5" y="224.0">ParamListK</text>
<rect class="node" x="3108.0" y="294.0" width="144.0" height="36" rx="6"/>
<text class="label" x="3180.0" y="312.0">ParamK value: n</text>
<rect class="node" x="3136.0" y="382.0" width="88.0" height="36" rx="6"/>
<text class="label" x="3180.0" y="400.0">IntegerK</text>
<rect class="node" x="3263.0" y="294.0" width="144.0" height="36" rx="6"/>
<text class="label" x="3335.0" y="312.0">ParamK var: out</text>
<rect class="node" x="3291.0" y="382.0" width="88.0" height="36" rx="6"/>
<text class="label" x="3335.0" y="400.0">IntegerK</text>
<rect class="node" x="3461.0" y="206.0" width="58.0" height="36" rx="6"/>
<text class="label" x="3490.0" y="224.0">VarK</text>
<rect class="node" x="3446.0" y="294.0" width="88.0" height="36" rx="6"/>
<text class="label" x="3490.0" y="312.0">DecK sub</text>
<rect class="node" x="3446.0" y="382.0" width="88.0" height="36" rx="6"/>
<text class="label" x="3490.0" y="400.0">IntegerK</text>
<rect class="node" x="4727.1" y="206.0" width="64.0" height="36" rx="6"/>
<text class="label" x="4759.1" y="224.0">StmLK</text>
<rect class="node" x="4124.1" y="294.0" width="88.0" height="36" rx="6"/>
<text class="label" x="4168.1" y="312.0">StmtK If</text>
<rect class="node" x="3674.5" y="382.0" width="96.0" height="36" rx="6"/>
<text class="label" x="3722.5" y="400.0">ExpK Op &lt;</text>
<rect class="node" x="3593.0" y="470.0" width="104.0" height="36" rx="6"/>
<text class="label" x="3645.0" y="488.0">ExpK n IdV</text>
<rect class="node" x="3740.0" y="470.0" width="120.0" height="36" rx="6"/>
<text class="label" x="3800.0" y="488.0">ExpK Const 2</text>
<rect class="node" x="4000.5" y="382.0" width="64.0" height="36" rx="6"/>
<text class="label" x="4032.5" y="400.0">StmLK</text>
<rect class="node" x="3972.5" y="470.0" width="120.0" height="36" rx="6"/>
<text class="label" x="4032.5" y="488.0">StmtK Assign</text>
<rect class="node" x="3895.0" y="558.0" width="120.0" height="36" rx="6"/>
<text class="label" x="3955.0" y="576.0">ExpK out IdV</text>
<rect class="node" x="4050.0" y="558.0" width="120.0" height="36" rx="6"/>
<text class="label" x="4110.0" y="576.0">ExpK Const 1</text>
<rect class="node" x="4717.4" y="382.0" width="64.0" height="36" rx="6"/>
<text class="label" x="4749.4" y="400.0">StmLK</text>
<rect class="node" x="4445.5" y="470.0" width="104.0" height="36" rx="6"/>
<text class="label" x="4497.5" y="488.0">StmtK Call</text>
<rect class="node" x="4181.0" y="558.0" width="168.0" height="36" rx="6"/>
<text class="label" x="4265.0" y="576.0">ExpK factorial IdV</text>
<rect class="node" x="4449.5" y="558.0" width="96.0" height="36" rx="6"/>
<text class="label" x="4497.5" y="576.0">ExpK Op -</text>
<rect class="node" x="4368.0" y="646.0" width="104.0" height="36" rx="6"/>
<text class="label" x="4420.0" y="664.0">ExpK n IdV</text>
<rect class="node" x="4515.0" y="646.0" width="120.0" height="36" rx="6"/>
<text class="label" x="4575.0" y="664.0">ExpK Const 1</text>
<rect class="node" x="4670.0" y="558.0" width="120.0" height="36" rx="6"/>
<text class="label" x="4730.0" y="576.0">ExpK sub IdV</text>
<rect class="node" x="4941.2" y="470.0" width="120.0" height="36" rx="6"/>
<text class="label" x="5001.2" y="488.0">StmtK Assign</text>
<rect class="node" x="4825.0" y="558.0" width="120.0" height="36" rx="6"/>
<text class="label" x="4885.0" y="576.0">ExpK out IdV</text>
<rect class="node" x="5069.5" y="558.0" width="96.0" height="36" rx="6"/>
<text class="label" x="5117.5" y="576.0">ExpK Op *</text>
<rect class="node" x="4988.0" y="646.0" width="104.0" height="36" rx="6"/>
<text class="label" x="5040.0" y="664.0">ExpK n IdV</text>
<rect class="node" x="5135.0" y="646.0" width="120.0" height="36" rx="6"/>
<text class="label" x="5195.0" y="664.0">ExpK sub IdV</text>
<rect class="node" x="5290.0" y="294.0" width="120.0" height="36" rx="6"/>
<text class="label" x="5350.0" y="312.0">StmtK Return</text>
<rect class="node" x="5290.0" y="382.0" width="120.0" height="36" rx="6"/>
<text class="label" x="5350.0" y="400.0">ExpK out IdV</text>
<rect class="node" x="6250.1" y="118.0" width="120.0" height="36" rx="6"/>
<text class="label" x="6310.1" y="136.0">ProcDecK fib</text>
<rect class="node" x="5530.5" y="206.0" width="104.0" height="36" rx="6"/>
<text class="label" x="5582.5" y="224.0">ParamListK</text>
<rect class="node" x="5433.0" y="294.0" width="144.0" height="36" rx="6"/>
<text class="label" x="5505.0" y="312.0">ParamK value: n</text>
<rect class="node" x="5461.0" y="382.0" width="88.0" height="36" rx="6"/>
<text class="label" x="5505.0" y="400.0">IntegerK</text>
<rect class="node" x="5588.0" y="294.0" width="144.0" height="36" rx="6"/>
<text class="label" x="5660.0" y="312.0">ParamK var: out</text>
<rect class="node" x="5616.0" y="382.0" width="88.0" height="36" rx="6"/>
<text class="label" x="5660.0" y="400.0">IntegerK</text>
<rect class="node" x="5786.0" y="206.0" width="58.0" height="36" rx="6"/>
<text class="label" x="5815.0" y="224.0">VarK</text>
<rect class="node" x="5739.0" y="294.0" width="152.0" height="36" rx="6"/>
<text class="label" x="5815.0" y="312.0">DecK left, right</text>
<rect class="node" x="5771.0" y="382.0" width="88.0" height="36" rx="6"/>
<text class="label" x="5815.0" y="400.0">IntegerK</text>
<rect class="node" x="7500.9" y="206.0" width="64.0" height="36" rx="6"/>
<text class="label" x="7532.9" y="224.0">StmLK</text>
<rect class="node" x="6571.8" y="294.0" width="88.0" height="36" rx="6"/>
<text class="label" x="6615.8" y="312.0">StmtK If</text>
<rect class="node" x="5999.5" y="382.0" width="96.0" height="36" rx="6"/>
<text class="label" x="6047.5" y="400.0">ExpK Op &lt;</text>
<rect class="node" x="5918.0" y="470.0" width="104.0" height="36" rx="6"/>
<text class="label" x="5970.0" y="488.0">ExpK n IdV</text>
<rect class="node" x="6065.0" y="470.0" width="120.0" height="36" rx="6"/>
<text class="label" x="6125.0" y="488.0">ExpK Const 2</text>
<rect class="node" x="6325.5" y="382.0" width="64.0" height="36" rx="6"/>
<text class="label" x="6357.5" y="400.0">StmLK</text>
<rect class="node" x="6297.5" y="470.0" width="120.0" height="36" rx="6"/>
<text class="label" x="6357.5" y="488.0">StmtK Assign</text>
<rect class="node" x="6220.0" y="558.0" width="120.0" height="36" rx="6"/>
<text class="label" x="6280.0" y="576.0">ExpK out IdV</text>
<rect class="node" x="6383.0" y="558.0" width="104.0" height="36" rx="6"/>
<text class="label" x="6435.0" y="576.0">ExpK n IdV</text>
<rect class="node" x="7410.5" y="382.0" width="64.0" height="36" rx="6"/>
<text class="label" x="7442.5" y="400.0">StmLK</text>
<rect class="node" x="6770.5" y="470.0" width="104.0" height="36" rx="6"/>
<text class="label" x="6822.5" y="488.0">StmtK Call</text>
<rect class="node" x="6530.0" y="558.0" width="120.0" height="36" rx="6"/>
<text class="label" x="6590.0" y="576.0">ExpK fib IdV</text>
<rect class="node" x="6774.5" y="558.0" width="96.0" height="36" rx="6"/>
<text class="label" x="6822.5" y="576.0">ExpK Op -</text>
<rect class="node" x="6693.0" y="646.0" width="104.0" height="36" rx="6"/>
<text class="label" x="6745.0" y="664.0">ExpK n IdV</text>
<rect class="node" x="6840.0" y="646.0" width="120.0" height="36" rx="6"/>
<text class="label" x="6900.0" y="664.0">ExpK Const 1</text>
<rect class="node" x="6991.0" y="558.0" width="128.0" height="36" rx="6"/>
<text class="label" x="7055.0" y="576.0">ExpK left IdV</text>
<rect class="node" x="7390.5" y="470.0" width="104.0" height="36" rx="6"/>
<text class="label" x="7442.5" y="488.0">StmtK Call</text>
<rect class="node" x="7150.0" y="558.0" width="120.0" height="36" rx="6"/>
<text class="label" x="7210.0" y="576.0">ExpK fib IdV</text>
<rect class="node" x="7394.5" y="558.0" width="96.0" height="36" rx="6"/>
<text class="label" x="7442.5" y="576.0">ExpK Op -</text>
<rect class="node" x="7313.0" y="646.0" width="104.0" height="36" rx="6"/>
<text class="label" x="7365.0" y="664.0">ExpK n IdV</text>
<rect class="node" x="7460.0" y="646.0" width="120.0" height="36" rx="6"/>
<text class="label" x="7520.0" y="664.0">ExpK Const 2</text>
<rect class="node" x="7607.0" y="558.0" width="136.0" height="36" rx="6"/>
<text class="label" x="7675.0" y="576.0">ExpK right IdV</text>
<rect class="node" x="8010.5" y="470.0" width="104.0" height="36" rx="6"/>
<text class="label" x="8062.5" y="488.0">StmtK Call</text>
<rect class="node" x="7770.0" y="558.0" width="120.0" height="36" rx="6"/>
<text class="label" x="7830.0" y="576.0">ExpK add IdV</text>
<rect class="node" x="7921.0" y="558.0" width="128.0" height="36" rx="6"/>
<text class="label" x="7985.0" y="576.0">ExpK left IdV</text>
<rect class="node" x="8072.0" y="558.0" width="136.0" height="36" rx="6"/>
<text class="label" x="8140.0" y="576.0">ExpK right IdV</text>
<rect class="node" x="8235.0" y="558.0" width="120.0" height="36" rx="6"/>
<text class="label" x="8295.0" y="576.0">ExpK out IdV</text>
<rect class="node" x="8390.0" y="294.0" width="120.0" height="36" rx="6"/>
<text class="label" x="8450.0" y="312.0">StmtK Return</text>
<rect class="node" x="8390.0" y="382.0" width="120.0" height="36" rx="6"/>
<text class="label" x="8450.0" y="400.0">ExpK out IdV</text>
<rect class="node" x="9396.5" y="118.0" width="184.0" height="36" rx="6"/>
<text class="label" x="9488.5" y="136.0">ProcDecK storeReport</text>
<rect class="node" x="8863.0" y="206.0" width="104.0" height="36" rx="6"/>
<text class="label" x="8915.0" y="224.0">ParamListK</text>
<rect class="node" x="8517.0" y="294.0" width="176.0" height="36" rx="6"/>
<text class="label" x="8605.0" y="312.0">ParamK value: fibIn</text>
<rect class="node" x="8561.0" y="382.0" width="88.0" height="36" rx="6"/>
<text class="label" x="8605.0" y="400.0">IntegerK</text>
<rect class="node" x="8668.0" y="294.0" width="184.0" height="36" rx="6"/>
<text class="label" x="8760.0" y="312.0">ParamK value: factIn</text>
<rect class="node" x="8716.0" y="382.0" width="88.0" height="36" rx="6"/>
<text class="label" x="8760.0" y="400.0">IntegerK</text>
<rect class="node" x="8819.0" y="294.0" width="192.0" height="36" rx="6"/>
<text class="label" x="8915.0" y="312.0">ParamK value: totalIn</text>
<rect class="node" x="8871.0" y="382.0" width="88.0" height="36" rx="6"/>
<text class="label" x="8915.0" y="400.0">IntegerK</text>
<rect class="node" x="8970.0" y="294.0" width="200.0" height="36" rx="6"/>
<text class="label" x="9070.0" y="312.0">ParamK value: scaledIn</text>
<rect class="node" x="9026.0" y="382.0" width="88.0" height="36" rx="6"/>
<text class="label" x="9070.0" y="400.0">IntegerK</text>
<rect class="node" x="9153.0" y="294.0" width="144.0" height="36" rx="6"/>
<text class="label" x="9225.0" y="312.0">ParamK var: dst</text>
<rect class="node" x="9157.0" y="382.0" width="136.0" height="36" rx="6"/>
<text class="label" x="9225.0" y="400.0">IdTypeK Report</text>
<rect class="node" x="10030.0" y="206.0" width="64.0" height="36" rx="6"/>
<text class="label" x="10062.0" y="224.0">StmLK</text>
<rect class="node" x="9397.5" y="294.0" width="120.0" height="36" rx="6"/>
<text class="label" x="9457.5" y="312.0">StmtK Assign</text>
<rect class="node" x="9320.0" y="382.0" width="120.0" height="36" rx="6"/>
<text class="label" x="9380.0" y="400.0">ExpK dst IdV</text>
<rect class="node" x="9308.0" y="470.0" width="144.0" height="36" rx="6"/>
<text class="label" x="9380.0" y="488.0">FieldK fibValue</text>
<rect class="node" x="9467.0" y="382.0" width="136.0" height="36" rx="6"/>
<text class="label" x="9535.0" y="400.0">ExpK fibIn IdV</text>
<rect class="node" x="9707.5" y="294.0" width="120.0" height="36" rx="6"/>
<text class="label" x="9767.5" y="312.0">StmtK Assign</text>
<rect class="node" x="9630.0" y="382.0" width="120.0" height="36" rx="6"/>
<text class="label" x="9690.0" y="400.0">ExpK dst IdV</text>
<rect class="node" x="9614.0" y="470.0" width="152.0" height="36" rx="6"/>
<text class="label" x="9690.0" y="488.0">FieldK factValue</text>
<rect class="node" x="9773.0" y="382.0" width="144.0" height="36" rx="6"/>
<text class="label" x="9845.0" y="400.0">ExpK factIn IdV</text>
<rect class="node" x="10017.5" y="294.0" width="120.0" height="36" rx="6"/>
<text class="label" x="10077.5" y="312.0">StmtK Assign</text>
<rect class="node" x="9940.0" y="382.0" width="120.0" height="36" rx="6"/>
<text class="label" x="10000.0" y="400.0">ExpK dst IdV</text>
<rect class="node" x="9920.0" y="470.0" width="160.0" height="36" rx="6"/>
<text class="label" x="10000.0" y="488.0">FieldK totalValue</text>
<rect class="node" x="10079.0" y="382.0" width="152.0" height="36" rx="6"/>
<text class="label" x="10155.0" y="400.0">ExpK totalIn IdV</text>
<rect class="node" x="10327.5" y="294.0" width="120.0" height="36" rx="6"/>
<text class="label" x="10387.5" y="312.0">StmtK Assign</text>
<rect class="node" x="10250.0" y="382.0" width="120.0" height="36" rx="6"/>
<text class="label" x="10310.0" y="400.0">ExpK dst IdV</text>
<rect class="node" x="10226.0" y="470.0" width="168.0" height="36" rx="6"/>
<text class="label" x="10310.0" y="488.0">FieldK scaledValue</text>
<rect class="node" x="10385.0" y="382.0" width="160.0" height="36" rx="6"/>
<text class="label" x="10465.0" y="400.0">ExpK scaledIn IdV</text>
<rect class="node" x="10560.0" y="294.0" width="120.0" height="36" rx="6"/>
<text class="label" x="10620.0" y="312.0">StmtK Return</text>
<rect class="node" x="10544.0" y="382.0" width="152.0" height="36" rx="6"/>
<text class="label" x="10620.0" y="400.0">ExpK totalIn IdV</text>
<rect class="node" x="10915.5" y="118.0" width="184.0" height="36" rx="6"/>
<text class="label" x="11007.5" y="136.0">ProcDecK printReport</text>
<rect class="node" x="10723.0" y="206.0" width="104.0" height="36" rx="6"/>
<text class="label" x="10775.0" y="224.0">ParamListK</text>
<rect class="node" x="10703.0" y="294.0" width="144.0" height="36" rx="6"/>
<text class="label" x="10775.0" y="312.0">ParamK var: src</text>
<rect class="node" x="10707.0" y="382.0" width="136.0" height="36" rx="6"/>
<text class="label" x="10775.0" y="400.0">IdTypeK Report</text>
<rect class="node" x="11208.0" y="206.0" width="64.0" height="36" rx="6"/>
<text class="label" x="11240.0" y="224.0">StmLK</text>
<rect class="node" x="10874.0" y="294.0" width="112.0" height="36" rx="6"/>
<text class="label" x="10930.0" y="312.0">StmtK Write</text>
<rect class="node" x="10870.0" y="382.0" width="120.0" height="36" rx="6"/>
<text class="label" x="10930.0" y="400.0">ExpK src IdV</text>
<rect class="node" x="10858.0" y="470.0" width="144.0" height="36" rx="6"/>
<text class="label" x="10930.0" y="488.0">FieldK fibValue</text>
<rect class="node" x="11029.0" y="294.0" width="112.0" height="36" rx="6"/>
<text class="label" x="11085.0" y="312.0">StmtK Write</text>
<rect class="node" x="11025.0" y="382.0" width="120.0" height="36" rx="6"/>
<text class="label" x="11085.0" y="400.0">ExpK src IdV</text>
<rect class="node" x="11009.0" y="470.0" width="152.0" height="36" rx="6"/>
<text class="label" x="11085.0" y="488.0">FieldK factValue</text>
<rect class="node" x="11184.0" y="294.0" width="112.0" height="36" rx="6"/>
<text class="label" x="11240.0" y="312.0">StmtK Write</text>
<rect class="node" x="11180.0" y="382.0" width="120.0" height="36" rx="6"/>
<text class="label" x="11240.0" y="400.0">ExpK src IdV</text>
<rect class="node" x="11160.0" y="470.0" width="160.0" height="36" rx="6"/>
<text class="label" x="11240.0" y="488.0">FieldK totalValue</text>
<rect class="node" x="11339.0" y="294.0" width="112.0" height="36" rx="6"/>
<text class="label" x="11395.0" y="312.0">StmtK Write</text>
<rect class="node" x="11335.0" y="382.0" width="120.0" height="36" rx="6"/>
<text class="label" x="11395.0" y="400.0">ExpK src IdV</text>
<rect class="node" x="11311.0" y="470.0" width="168.0" height="36" rx="6"/>
<text class="label" x="11395.0" y="488.0">FieldK scaledValue</text>
<rect class="node" x="11490.0" y="294.0" width="120.0" height="36" rx="6"/>
<text class="label" x="11550.0" y="312.0">StmtK Return</text>
<rect class="node" x="11490.0" y="382.0" width="120.0" height="36" rx="6"/>
<text class="label" x="11550.0" y="400.0">ExpK src IdV</text>
<rect class="node" x="11466.0" y="470.0" width="168.0" height="36" rx="6"/>
<text class="label" x="11550.0" y="488.0">FieldK scaledValue</text>
<rect class="node" x="14033.2" y="118.0" width="64.0" height="36" rx="6"/>
<text class="label" x="14065.2" y="136.0">StmLK</text>
<rect class="node" x="11722.5" y="206.0" width="120.0" height="36" rx="6"/>
<text class="label" x="11782.5" y="224.0">StmtK Assign</text>
<rect class="node" x="11653.0" y="294.0" width="104.0" height="36" rx="6"/>
<text class="label" x="11705.0" y="312.0">ExpK n IdV</text>
<rect class="node" x="11800.0" y="294.0" width="120.0" height="36" rx="6"/>
<text class="label" x="11860.0" y="312.0">ExpK Const 6</text>
<rect class="node" x="12118.0" y="206.0" width="104.0" height="36" rx="6"/>
<text class="label" x="12170.0" y="224.0">StmtK Call</text>
<rect class="node" x="11955.0" y="294.0" width="120.0" height="36" rx="6"/>
<text class="label" x="12015.0" y="312.0">ExpK fib IdV</text>
<rect class="node" x="12118.0" y="294.0" width="104.0" height="36" rx="6"/>
<text class="label" x="12170.0" y="312.0">ExpK n IdV</text>
<rect class="node" x="12241.0" y="294.0" width="168.0" height="36" rx="6"/>
<text class="label" x="12325.0" y="312.0">ExpK fibResult IdV</text>
<rect class="node" x="12583.0" y="206.0" width="104.0" height="36" rx="6"/>
<text class="label" x="12635.0" y="224.0">StmtK Call</text>
<rect class="node" x="12396.0" y="294.0" width="168.0" height="36" rx="6"/>
<text class="label" x="12480.0" y="312.0">ExpK factorial IdV</text>
<rect class="node" x="12575.0" y="294.0" width="120.0" height="36" rx="6"/>
<text class="label" x="12635.0" y="312.0">ExpK Const 5</text>
<rect class="node" x="12702.0" y="294.0" width="176.0" height="36" rx="6"/>
<text class="label" x="12790.0" y="312.0">ExpK factResult IdV</text>
<rect class="node" x="13125.5" y="206.0" width="104.0" height="36" rx="6"/>
<text class="label" x="13177.5" y="224.0">StmtK Call</text>
<rect class="node" x="12885.0" y="294.0" width="120.0" height="36" rx="6"/>
<text class="label" x="12945.0" y="312.0">ExpK add IdV</text>
<rect class="node" x="13016.0" y="294.0" width="168.0" height="36" rx="6"/>
<text class="label" x="13100.0" y="312.0">ExpK fibResult IdV</text>
<rect class="node" x="13167.0" y="294.0" width="176.0" height="36" rx="6"/>
<text class="label" x="13255.0" y="312.0">ExpK factResult IdV</text>
<rect class="node" x="13342.0" y="294.0" width="136.0" height="36" rx="6"/>
<text class="label" x="13410.0" y="312.0">ExpK total IdV</text>
<rect class="node" x="13745.5" y="206.0" width="104.0" height="36" rx="6"/>
<text class="label" x="13797.5" y="224.0">StmtK Call</text>
<rect class="node" x="13497.0" y="294.0" width="136.0" height="36" rx="6"/>
<text class="label" x="13565.0" y="312.0">ExpK scale IdV</text>
<rect class="node" x="13652.0" y="294.0" width="136.0" height="36" rx="6"/>
<text class="label" x="13720.0" y="312.0">ExpK total IdV</text>
<rect class="node" x="13815.0" y="294.0" width="120.0" height="36" rx="6"/>
<text class="label" x="13875.0" y="312.0">ExpK Const 2</text>
<rect class="node" x="13958.0" y="294.0" width="144.0" height="36" rx="6"/>
<text class="label" x="14030.0" y="312.0">ExpK scaled IdV</text>
<rect class="node" x="14202.5" y="206.0" width="120.0" height="36" rx="6"/>
<text class="label" x="14262.5" y="224.0">StmtK Assign</text>
<rect class="node" x="14113.0" y="294.0" width="144.0" height="36" rx="6"/>
<text class="label" x="14185.0" y="312.0">ExpK values IdV</text>
<rect class="node" x="14149.0" y="382.0" width="72.0" height="36" rx="6"/>
<text class="label" x="14185.0" y="400.0">IndexK</text>
<rect class="node" x="14125.0" y="470.0" width="120.0" height="36" rx="6"/>
<text class="label" x="14185.0" y="488.0">ExpK Const 1</text>
<rect class="node" x="14256.0" y="294.0" width="168.0" height="36" rx="6"/>
<text class="label" x="14340.0" y="312.0">ExpK fibResult IdV</text>
<rect class="node" x="14512.5" y="206.0" width="120.0" height="36" rx="6"/>
<text class="label" x="14572.5" y="224.0">StmtK Assign</text>
<rect class="node" x="14423.0" y="294.0" width="144.0" height="36" rx="6"/>
<text class="label" x="14495.0" y="312.0">ExpK values IdV</text>
<rect class="node" x="14459.0" y="382.0" width="72.0" height="36" rx="6"/>
<text class="label" x="14495.0" y="400.0">IndexK</text>
<rect class="node" x="14435.0" y="470.0" width="120.0" height="36" rx="6"/>
<text class="label" x="14495.0" y="488.0">ExpK Const 2</text>
<rect class="node" x="14562.0" y="294.0" width="176.0" height="36" rx="6"/>
<text class="label" x="14650.0" y="312.0">ExpK factResult IdV</text>
<rect class="node" x="14822.5" y="206.0" width="120.0" height="36" rx="6"/>
<text class="label" x="14882.5" y="224.0">StmtK Assign</text>
<rect class="node" x="14733.0" y="294.0" width="144.0" height="36" rx="6"/>
<text class="label" x="14805.0" y="312.0">ExpK values IdV</text>
<rect class="node" x="14769.0" y="382.0" width="72.0" height="36" rx="6"/>
<text class="label" x="14805.0" y="400.0">IndexK</text>
<rect class="node" x="14745.0" y="470.0" width="120.0" height="36" rx="6"/>
<text class="label" x="14805.0" y="488.0">ExpK Const 3</text>
<rect class="node" x="14892.0" y="294.0" width="136.0" height="36" rx="6"/>
<text class="label" x="14960.0" y="312.0">ExpK total IdV</text>
<rect class="node" x="15132.5" y="206.0" width="120.0" height="36" rx="6"/>
<text class="label" x="15192.5" y="224.0">StmtK Assign</text>
<rect class="node" x="15043.0" y="294.0" width="144.0" height="36" rx="6"/>
<text class="label" x="15115.0" y="312.0">ExpK values IdV</text>
<rect class="node" x="15079.0" y="382.0" width="72.0" height="36" rx="6"/>
<text class="label" x="15115.0" y="400.0">IndexK</text>
<rect class="node" x="15055.0" y="470.0" width="120.0" height="36" rx="6"/>
<text class="label" x="15115.0" y="488.0">ExpK Const 4</text>
<rect class="node" x="15198.0" y="294.0" width="144.0" height="36" rx="6"/>
<text class="label" x="15270.0" y="312.0">ExpK scaled IdV</text>
<rect class="node" x="15760.5" y="206.0" width="104.0" height="36" rx="6"/>
<text class="label" x="15812.5" y="224.0">StmtK Call</text>
<rect class="node" x="15333.0" y="294.0" width="184.0" height="36" rx="6"/>
<text class="label" x="15425.0" y="312.0">ExpK storeReport IdV</text>
<rect class="node" x="15508.0" y="294.0" width="144.0" height="36" rx="6"/>
<text class="label" x="15580.0" y="312.0">ExpK values IdV</text>
<rect class="node" x="15544.0" y="382.0" width="72.0" height="36" rx="6"/>
<text class="label" x="15580.0" y="400.0">IndexK</text>
<rect class="node" x="15520.0" y="470.0" width="120.0" height="36" rx="6"/>
<text class="label" x="15580.0" y="488.0">ExpK Const 1</text>
<rect class="node" x="15663.0" y="294.0" width="144.0" height="36" rx="6"/>
<text class="label" x="15735.0" y="312.0">ExpK values IdV</text>
<rect class="node" x="15699.0" y="382.0" width="72.0" height="36" rx="6"/>
<text class="label" x="15735.0" y="400.0">IndexK</text>
<rect class="node" x="15675.0" y="470.0" width="120.0" height="36" rx="6"/>
<text class="label" x="15735.0" y="488.0">ExpK Const 2</text>
<rect class="node" x="15818.0" y="294.0" width="144.0" height="36" rx="6"/>
<text class="label" x="15890.0" y="312.0">ExpK values IdV</text>
<rect class="node" x="15854.0" y="382.0" width="72.0" height="36" rx="6"/>
<text class="label" x="15890.0" y="400.0">IndexK</text>
<rect class="node" x="15830.0" y="470.0" width="120.0" height="36" rx="6"/>
<text class="label" x="15890.0" y="488.0">ExpK Const 3</text>
<rect class="node" x="15973.0" y="294.0" width="144.0" height="36" rx="6"/>
<text class="label" x="16045.0" y="312.0">ExpK values IdV</text>
<rect class="node" x="16009.0" y="382.0" width="72.0" height="36" rx="6"/>
<text class="label" x="16045.0" y="400.0">IndexK</text>
<rect class="node" x="15985.0" y="470.0" width="120.0" height="36" rx="6"/>
<text class="label" x="16045.0" y="488.0">ExpK Const 4</text>
<rect class="node" x="16128.0" y="294.0" width="144.0" height="36" rx="6"/>
<text class="label" x="16200.0" y="312.0">ExpK report IdV</text>
<rect class="node" x="16380.5" y="206.0" width="104.0" height="36" rx="6"/>
<text class="label" x="16432.5" y="224.0">StmtK Call</text>
<rect class="node" x="16263.0" y="294.0" width="184.0" height="36" rx="6"/>
<text class="label" x="16355.0" y="312.0">ExpK printReport IdV</text>
<rect class="node" x="16438.0" y="294.0" width="144.0" height="36" rx="6"/>
<text class="label" x="16510.0" y="312.0">ExpK report IdV</text>
</svg>